<svg width="128" height="40" viewBox="0 0 128 40" fill="none" xmlns="http://www.w3.org/2000/svg">
<path d="M48.4455 11.3213H44.9404L37.2369 28.5715H41.1629L46.7672 16.0287L52.0249 28.5715H56.149L48.4455 11.3213Z" fill="#3C7CDE"/>
<path d="M65.3493 28.989C64.0149 28.989 62.7823 28.7418 61.6213 28.3491C60.485 27.8822 59.4726 27.2643 58.6334 26.4266C57.7943 25.5889 57.1285 24.6771 56.6828 23.617C56.2151 22.5322 55.9675 21.3238 55.9675 19.9698C55.9675 18.6872 56.2151 17.5063 56.6828 16.4214C57.1285 15.3366 57.8191 14.3506 58.6582 13.5377C59.4973 12.7247 60.5098 12.1096 61.6461 11.6646C62.8071 11.2197 64.0397 11 65.374 11C66.7084 11 68.0895 11.2472 69.3001 11.7388C70.4859 12.2551 71.2507 12.7742 72.0899 13.7107L69.3496 16.3225C68.7581 15.7321 68.2876 15.3613 67.6218 15.0894C66.9312 14.7928 66.2159 14.6225 65.3988 14.6225C64.5817 14.6225 63.8938 14.7708 63.2005 15.0427C62.5595 15.2899 61.99 15.6579 61.4975 16.1276C61.005 16.6192 60.6584 17.2124 60.3365 17.877C60.0888 18.4922 59.965 19.2337 59.965 19.9725C59.965 20.7608 60.0888 21.4995 60.3365 22.1669C60.6584 22.7821 61.0023 23.3506 61.4975 23.8422C61.99 24.3091 62.5595 24.6799 63.2005 24.9518C63.8911 25.2237 64.6064 25.3225 65.3988 25.3225C66.1911 25.3225 66.9285 25.199 67.6218 24.8776C68.2876 24.581 68.9809 24.0647 69.5724 23.4248L72.1889 26.1355C71.3498 27.1214 70.4859 27.7366 69.3001 28.2557C68.0895 28.7226 66.7579 28.9945 65.3493 28.9945V28.989Z" fill="#3C7CDE"/>
<path d="M82.4951 29C81.1662 29 79.9419 28.7775 78.7368 28.3381C77.5813 27.874 76.5496 27.2588 75.716 26.4486C74.8823 25.6384 74.2193 24.6579 73.7516 23.5786C73.2866 22.4745 73.039 21.2716 73.039 20C73.039 18.7284 73.2866 17.5008 73.7516 16.4214C74.2165 15.3421 74.8823 14.3863 75.716 13.5761C76.5496 12.7687 77.5841 12.1562 78.7121 11.7113C79.9171 11.2472 81.1662 11.0247 82.4951 11.0247C83.8239 11.0247 85.0978 11.2472 86.2533 11.7113C87.4088 12.1288 88.4158 12.7659 89.2494 13.5514C90.061 14.3616 90.7213 15.3174 91.1891 16.4214C91.6788 17.5008 91.9016 18.7037 91.9016 20C91.9016 21.2963 91.6788 22.4992 91.1891 23.6033C90.7241 24.6826 90.0583 25.6631 89.2494 26.4733C88.4158 27.2835 87.4061 27.8932 86.2533 28.3381C85.0978 28.7803 83.8459 29 82.4951 29ZM82.4951 25.5423C83.3067 25.5423 84.0413 25.394 84.6823 25.1495C85.3701 24.8804 85.9369 24.5124 86.4514 23.996C86.9659 23.4797 87.3098 22.9414 87.5822 22.2301C87.9013 21.5435 88.0251 20.8102 88.0251 19.9973C88.0251 19.1843 87.9013 18.4538 87.6069 17.7644C87.3373 17.1025 86.9934 16.5121 86.4761 15.9985C85.9369 15.5096 85.3701 15.1416 84.6823 14.8697C84.044 14.6006 83.3067 14.4522 82.4951 14.4522C81.6834 14.4522 80.9736 14.6006 80.2583 14.8697C79.5952 15.1388 78.979 15.5069 78.4892 16.0232C77.9995 16.5121 77.6308 17.1273 77.3337 17.7891C77.0146 18.451 76.8907 19.1843 76.8907 19.9973C76.8907 20.8102 77.0146 21.516 77.3337 22.2054C77.6281 22.9167 77.9968 23.4825 78.4892 23.996C78.9817 24.5096 79.5952 24.8776 80.2583 25.1495C80.9709 25.3967 81.7055 25.5423 82.4951 25.5423Z" fill="#3C7CDE"/>
<path d="M106.549 11.3186V22.5816L97.6628 11.3186H94.3283L94.3035 28.5743H98.059V17.358L106.948 28.5743H110.283V11.3186H106.549Z" fill="#3C7CDE"/>
<path d="M21.0567 28.5496L21.0511 13.09L22.3718 14.6802H18V11.3213H24.7323V28.5468H21.0567V28.5496Z" fill="#3C7CDE"/>
<path d="M28.3393 28.5715H21.0567V11.3213H28.3393C34.2407 11.3213 37.3001 14.032 37.3001 19.4782C37.3001 25.5148 34.238 28.5715 28.3393 28.5715ZM24.7351 14.6719V25.2209H28.3145C31.6463 25.2209 33.6217 23.5209 33.6217 19.4534C33.6217 15.8309 31.6463 14.6719 28.3145 14.6719H24.7351Z" fill="#3C7CDE"/>
</svg>
