<svg xmlns="http://www.w3.org/2000/svg" xml:space="preserve" width="101.4544" height="147.83333" viewBox="0 0 101.4544 147.83333"><defs><clipPath id="a" clipPathUnits="userSpaceOnUse"><path d="M0 110.875h76.091V0H0Z"/></clipPath></defs><g clip-path="url(#a)" transform="matrix(1.33333 0 0 -1.33333 0 147.833)"><path d="M0 0c-1.285 0-2.281-.174-2.986-.52-.705-.345-1.057-.779-1.057-1.298 0-.446.586-.828 1.762-1.151 1.174-.322 2.665-.642 4.47-.965 2.795-.494 5.108-1.082 6.94-1.761 1.83-.68 2.746-1.85 2.746-3.506 0-1.51-1.113-2.715-3.34-3.617-2.226-.903-5.072-1.356-8.535-1.356-1.73 0-3.295.125-4.693.371-1.398.248-2.592.582-3.581 1.002-1.138.52-1.992 1.133-2.559 1.836-.569.705-.904 1.43-1.003 2.172h6.902c0-.594.446-1.139 1.336-1.633.89-.494 2.14-.754 3.746-.779 1.608-.049 2.828.142 3.657.574.828.434 1.205.897 1.131 1.393-.1.717-.649 1.23-1.651 1.539A33.73 33.73 0 0 1 .148-6.9c-2.201.468-4.625.982-7.271 1.539-2.648.556-3.971 1.701-3.971 3.431 0 1.633 1.028 2.852 3.08 3.655 2.052.804 4.711 1.207 7.977 1.207 3.389 0 6.074-.422 8.053-1.262 1.978-.842 3.08-2.053 3.301-3.637H4.119c0 .545-.359 1.008-1.076 1.393C2.325-.191 1.311 0 0 0" style="fill:#231f20;fill-opacity:1;fill-rule:nonzero;stroke:none" transform="translate(12.02 15.602)"/><path d="M0 0c-2.178 0-3.741-.594-4.693-1.781-.953-1.188-1.43-2.449-1.43-3.783 0-1.411.477-2.704 1.43-3.879.952-1.174 2.515-1.762 4.693-1.762 2.35 0 3.852.482 4.508 1.447.655.965.957 1.596.909 1.893h6.937c-.295-1.387-1.416-2.778-3.358-4.176C7.055-13.438 4.057-14.137 0-14.137c-3.958 0-7.125.848-9.5 2.541-2.375 1.696-3.561 3.705-3.561 6.032 0 2.25 1.199 4.228 3.599 5.935C-7.063 2.078-3.908 2.932 0 2.932c3.957 0 6.925-.725 8.904-2.172 1.979-1.448 3.055-2.752 3.229-3.914H5.23c-.099.47-.513 1.113-1.243 1.929C3.259-.408 1.93 0 0 0" style="fill:#231f20;fill-opacity:1;fill-rule:nonzero;stroke:none" transform="translate(38.453 15.602)"/><path d="M0 0v-10.65c0-.842.408-1.565 1.225-2.17.816-.606 1.955-.909 3.414-.909 1.507 0 2.658.303 3.451.909.791.605 1.187 1.328 1.187 2.17V0h6.939v-10.168c0-1.978-1.003-3.561-3.007-4.75-2.004-1.186-4.861-1.779-8.57-1.779-3.711 0-6.569.588-8.573 1.761-2.004 1.176-3.004 2.764-3.004 4.768V0z" style="fill:#231f20;fill-opacity:1;fill-rule:nonzero;stroke:none" transform="translate(59.875 18.158)"/><path d="M76.032 24.293H0v86.582h76.032z" style="fill:#00ac5c;fill-opacity:1;fill-rule:nonzero;stroke:none"/><path d="m0 0 7.544 11.828h18.325L33.406 0Zm16.711 26.205 4.877-7.657h-9.76zm18.467-14.377h11.277v6.72H30.893L16.705 40.815 2.512 18.548h-15.443v-6.72h11.16L-14.223-7.709S.044-4.883 16.686-4.883c16.829 0 30.946-2.826 30.946-2.826z" style="fill:#fff;fill-opacity:1;fill-rule:nonzero;stroke:none" transform="translate(21.33 41.182)"/></g></svg>